<?xml version="1.0" encoding="UTF-8"?>
<svg width="260px" height="33px" viewBox="0 0 260 33" version="1.1" xmlns="http://www.w3.org/2000/svg" xmlns:xlink="http://www.w3.org/1999/xlink">
    <!-- Generator: Sketch 42 (36781) - http://www.bohemiancoding.com/sketch -->
    <title>CA_Logo_Color</title>
    <desc>Created with Sketch.</desc>
    <defs></defs>
    <g id="Page-1" stroke="none" stroke-width="1" fill="none" fill-rule="evenodd">
        <g id="CA_Logo_Color">
            <path d="M28.492,27.16 C27.2599938,28.8320084 25.6613432,30.1886615 23.696,31.23 C21.7306568,32.2713385 19.3693471,32.792 16.612,32.792 C14.2359881,32.792 12.0433434,32.3886707 10.034,31.582 C8.02465662,30.7753293 6.29400726,29.6460073 4.842,28.194 C3.38999274,26.7419927 2.25333744,25.0113434 1.432,23.002 C0.61066256,20.9926566 0.2,18.7853454 0.2,16.38 C0.2,13.9453212 0.61799582,11.7233434 1.454,9.714 C2.29000418,7.70465662 3.44865926,5.98867378 4.93,4.566 C6.41134074,3.14332622 8.16398988,2.03600396 10.188,1.244 C12.2120101,0.45199604 14.4119881,0.056 16.788,0.056 C17.8440053,0.056 18.9146612,0.15866564 20,0.364 C21.0853388,0.56933436 22.1266617,0.87733128 23.124,1.288 C24.1213383,1.69866872 25.0306626,2.20466366 25.852,2.806 C26.6733374,3.40733634 27.3773304,4.10399604 27.964,4.896 L24.532,7.536 C23.7693295,6.47999472 22.6913403,5.60733678 21.298,4.918 C19.9046597,4.22866322 18.4013414,3.884 16.788,3.884 C14.9693242,3.884 13.3340073,4.2139967 11.882,4.874 C10.4299927,5.5340033 9.1906718,6.43599428 8.164,7.58 C7.1373282,8.72400572 6.34533612,10.0513258 5.788,11.562 C5.23066388,13.0726742 4.952,14.6786582 4.952,16.38 C4.952,18.1400088 5.22333062,19.782659 5.766,21.308 C6.30866938,22.833341 7.08599494,24.160661 8.098,25.29 C9.11000506,26.419339 10.3419927,27.3066634 11.794,27.952 C13.2460073,28.5973366 14.8666577,28.92 16.656,28.92 C18.4160088,28.92 20.0146595,28.5680035 21.452,27.864 C22.8893405,27.1599965 24.0773286,26.1333401 25.016,24.784 L28.492,27.16 Z M37.292,28.128 L51.196,28.128 L51.196,32 L32.936,32 L32.936,0.848 L37.292,0.848 L37.292,28.128 Z M66.244,32.792 C64.1906564,32.792 62.401341,32.4473368 60.876,31.758 C59.350659,31.0686632 58.0893383,30.1520057 57.092,29.008 C56.0946617,27.8639943 55.3540024,26.5513407 54.87,25.07 C54.3859976,23.5886593 54.144,22.0560079 54.144,20.472 L54.144,0.848 L58.5,0.848 L58.5,20.208 C58.5,21.2640053 58.6319987,22.3126615 58.896,23.354 C59.1600013,24.3953385 59.5926637,25.3266626 60.194,26.148 C60.7953363,26.9693374 61.5873284,27.6293308 62.57,28.128 C63.5526716,28.6266692 64.777326,28.876 66.244,28.876 C67.6813405,28.876 68.8986617,28.6266692 69.896,28.128 C70.8933383,27.6293308 71.6926637,26.9693374 72.294,26.148 C72.8953363,25.3266626 73.3279987,24.3953385 73.592,23.354 C73.8560013,22.3126615 73.988,21.2640053 73.988,20.208 L73.988,0.848 L78.344,0.848 L78.344,20.472 C78.344,22.0560079 78.1020024,23.5886593 77.618,25.07 C77.1339976,26.5513407 76.3933383,27.8639943 75.396,29.008 C74.3986617,30.1520057 73.137341,31.0686632 71.612,31.758 C70.086659,32.4473368 68.2973436,32.792 66.244,32.792 Z M85.692,0.848 L96.428,0.848 C97.6013392,0.848 98.7746608,0.97999868 99.948,1.244 C101.121339,1.50800132 102.169995,1.94799692 103.094,2.564 C104.018005,3.18000308 104.765997,3.98666168 105.338,4.984 C105.910003,5.98133832 106.196,7.22799252 106.196,8.724 C106.196,10.4546753 105.697338,11.9066608 104.7,13.08 C103.702662,14.2533392 102.382675,15.0599978 100.74,15.5 L100.74,15.588 C101.737338,15.7053339 102.661329,15.961998 103.512,16.358 C104.362671,16.754002 105.095997,17.2746634 105.712,17.92 C106.328003,18.5653366 106.804665,19.3279956 107.142,20.208 C107.479335,21.0880044 107.648,22.0706612 107.648,23.156 C107.648,24.6520075 107.340003,25.9573278 106.724,27.072 C106.107997,28.1866722 105.272005,29.1033297 104.216,29.822 C103.159995,30.5406703 101.920674,31.0833315 100.498,31.45 C99.0753262,31.8166685 97.5573414,32 95.944,32 L85.692,32 L85.692,0.848 Z M90.048,14.004 L95.724,14.004 C96.5453374,14.004 97.3299963,13.9086676 98.078,13.718 C98.8260037,13.5273324 99.4786639,13.234002 100.036,12.838 C100.593336,12.441998 101.033332,11.9433363 101.356,11.342 C101.678668,10.7406637 101.84,10.0146709 101.84,9.164 C101.84,7.49199164 101.224006,6.29667026 99.992,5.578 C98.7599938,4.85932974 97.1026771,4.5 95.02,4.5 L90.048,4.5 L90.048,14.004 Z M90.048,28.304 L95.504,28.304 C96.4133379,28.304 97.3299954,28.2233341 98.254,28.062 C99.1780046,27.9006659 100.013996,27.6146687 100.762,27.204 C101.510004,26.7933313 102.111331,26.2433368 102.566,25.554 C103.020669,24.8646632 103.248,23.9920053 103.248,22.936 C103.248,21.0879908 102.61734,19.7533374 101.356,18.932 C100.09466,18.1106626 98.2760119,17.7 95.9,17.7 L90.048,17.7 L90.048,28.304 Z" id="CLUB" fill="#333333"></path>
            <path d="M153.06,32 L148.22,32 L161.728,0.848 L165.688,0.848 L179.064,32 L174.136,32 L170.968,24.344 L156.184,24.344 L153.06,32 Z M157.724,20.516 L169.384,20.516 L163.576,5.908 L157.724,20.516 Z M183.992,25.048 C184.226668,26.1626722 184.739996,27.086663 185.532,27.82 C186.324004,28.553337 187.306661,28.92 188.48,28.92 C189.418671,28.92 190.188664,28.7440018 190.79,28.392 C191.391336,28.0399982 191.867998,27.5633363 192.22,26.962 C192.572002,26.3606637 192.821333,25.6566707 192.968,24.85 C193.114667,24.0433293 193.188,23.1853379 193.188,22.276 L193.188,0.848 L197.544,0.848 L197.544,22.452 C197.544,23.5373388 197.426668,24.6813273 197.192,25.884 C196.957332,27.0866727 196.517337,28.2013282 195.872,29.228 C195.226663,30.2546718 194.324672,31.10533 193.166,31.78 C192.007328,32.45467 190.518676,32.792 188.7,32.792 C186.323988,32.792 184.388007,32.1760062 182.892,30.944 C181.395993,29.7119938 180.413336,28.1280097 179.944,26.192 L183.992,25.048 Z M205.596,32 L200.756,32 L214.264,0.848 L218.224,0.848 L231.6,32 L226.672,32 L223.504,24.344 L208.72,24.344 L205.596,32 Z M210.26,20.516 L221.92,20.516 L216.112,5.908 L210.26,20.516 Z M246.516,12.464 L253.908,0.848 L259.012,0.848 L249.068,15.588 L260.376,32 L254.876,32 L246.34,18.888 L237.98,32 L232.612,32 L243.744,15.5 L233.712,0.848 L239.036,0.848 L246.516,12.464 Z" id="AJAX" fill="#333333"></path>
            <polygon id="Star" fill="#0365C0" points="130 24.5555556 118.666667 32.1111111 122.444444 18.8888889 113 11.3333333 124.333333 11.3333333 130 0 135.659749 11.3333333 147 11.3333333 137.555556 18.8888889 141.333333 32.1111111"></polygon>
        </g>
    </g>
</svg>